<?xml version="1.0" encoding="UTF-8" standalone="no"?>
<!-- Created with Inkscape (http://www.inkscape.org/) -->

<svg
   xmlns:osb="http://www.openswatchbook.org/uri/2009/osb"
   xmlns:dc="http://purl.org/dc/elements/1.1/"
   xmlns:cc="http://creativecommons.org/ns#"
   xmlns:rdf="http://www.w3.org/1999/02/22-rdf-syntax-ns#"
   xmlns:svg="http://www.w3.org/2000/svg"
   xmlns="http://www.w3.org/2000/svg"
   xmlns:sodipodi="http://sodipodi.sourceforge.net/DTD/sodipodi-0.dtd"
   xmlns:inkscape="http://www.inkscape.org/namespaces/inkscape"
   id="svg2"
   version="1.1"
   inkscape:version="0.48.4 r9939"
   width="254"
   height="254"
   xml:space="preserve"
   sodipodi:docname="penguin.svg"
   inkscape:export-filename="/home/raziel/dev/pg4l/arts/penguin.png"
   inkscape:export-xdpi="181.42"
   inkscape:export-ydpi="181.42"><metadata
     id="metadata8"><rdf:RDF><cc:Work
         rdf:about=""><dc:format>image/svg+xml</dc:format><dc:type
           rdf:resource="http://purl.org/dc/dcmitype/StillImage" /><dc:title></dc:title></cc:Work></rdf:RDF></metadata><defs
     id="defs6"><linearGradient
       id="linearGradient3884"
       osb:paint="solid"><stop
         style="stop-color:#000000;stop-opacity:1;"
         offset="0"
         id="stop3886" /></linearGradient><clipPath
       clipPathUnits="userSpaceOnUse"
       id="clipPath16"><path
         d="m 0,212.6 198.43,0 L 198.43,0 0,0 0,212.6 z"
         id="path18"
         inkscape:connector-curvature="0" /></clipPath></defs><sodipodi:namedview
     pagecolor="#ffffff"
     bordercolor="#666666"
     borderopacity="1"
     objecttolerance="10"
     gridtolerance="10"
     guidetolerance="10"
     inkscape:pageopacity="0"
     inkscape:pageshadow="2"
     inkscape:window-width="1920"
     inkscape:window-height="1033"
     id="namedview4"
     showgrid="false"
     inkscape:zoom="2.8284271"
     inkscape:cx="116.22122"
     inkscape:cy="128.28659"
     inkscape:window-x="-2"
     inkscape:window-y="-3"
     inkscape:window-maximized="1"
     inkscape:current-layer="g12" /><g
     id="g10"
     inkscape:groupmode="layer"
     inkscape:label="penguin"
     transform="matrix(1.25,0,0,-1.25,0,254)"><g
       id="g12"><rect
         style="color:#000000;fill:none;fill-opacity:1;stroke:none;stroke-width:3.50000000000000000;marker:none;visibility:visible;display:inline;overflow:visible;enable-background:accumulate"
         id="rect3882"
         width="203.2"
         height="203.2"
         x="0"
         y="-203.2"
         transform="scale(1,-1)" /><g
         id="g14"
         clip-path="url(#clipPath16)"
         transform="translate(2.3852,-7.1567127)"><g
           id="g20"
           transform="translate(65.6357,12.2041)"><path
             d="m 0,0 c -1.292,0.671 -2.675,3.397 -5.357,1.605 -0.992,-0.663 0,-0.712 0,-0.712 0,0 2.426,-2.399 4.464,-2.143 C -0.152,-1.158 0,0 0,0"
             style="fill:#231f20;fill-opacity:1;fill-rule:nonzero;stroke:none"
             id="path22"
             inkscape:connector-curvature="0" /></g><g
           id="g24"
           transform="translate(133.4014,12.875)"><path
             d="m 0,0 c 1.292,0.671 1.383,2.727 4.065,0.935 0.992,-0.664 0,-0.713 0,-0.713 C 4.387,0.538 3.841,-2.452 -0.399,-1.921 -1.141,-1.829 0,0 0,0"
             style="fill:#231f20;fill-opacity:1;fill-rule:nonzero;stroke:none"
             id="path26"
             inkscape:connector-curvature="0" /></g><g
           id="g28"
           transform="translate(81.1606,8.8438)"><path
             d="M 0,0 C 0,0 0.107,0.184 0.276,0.433 0.619,0.938 1.219,1.718 1.709,1.794 2.44,1.909 3.393,2.141 3.482,1.963 3.572,1.785 5,0.178 4.634,-0.704 4.268,-1.585 3.305,-1.162 3.305,-1.162 l -3.669,1.397"
             style="fill:#231f20;fill-opacity:1;fill-rule:nonzero;stroke:none"
             id="path30"
             inkscape:connector-curvature="0" /></g><g
           id="g32"
           transform="translate(118.1729,8.8525)"><path
             d="m 0,0 c 0,0 -0.129,0.18 -0.334,0.423 -0.414,0.493 -1.138,1.252 -1.729,1.327 -0.882,0.111 -2.033,0.338 -2.141,0.164 -0.109,-0.174 -1.832,-1.74 -1.39,-2.6 0.442,-0.858 1.605,-0.446 1.605,-0.446 L 0.439,0.23"
             style="fill:#231f20;fill-opacity:1;fill-rule:nonzero;stroke:none"
             id="path34"
             inkscape:connector-curvature="0" /></g><g
           id="g36"
           transform="translate(90.0903,10.8965)"><path
             d="m 0,0 c 0,0 1.297,1.785 2.166,1.785 0.869,0 2.112,-0.892 2.112,-0.892 L 4.707,-0.089 4.208,-1.071 0,0 z"
             style="fill:#231f20;fill-opacity:1;fill-rule:nonzero;stroke:none"
             id="path38"
             inkscape:connector-curvature="0" /></g><g
           id="g40"
           transform="translate(103.6318,10.8076)"><path
             d="m 0,0 0.5,-0.982 3.102,0.422 c 0,0 1.242,0.882 0.66,1.403 -0.362,0.323 -2.168,1.3 -2.5,1.3"
             style="fill:#231f20;fill-opacity:1;fill-rule:nonzero;stroke:none"
             id="path42"
             inkscape:connector-curvature="0" /></g><g
           id="g44"
           transform="translate(48.2461,30.5117)"><path
             d="m 0,0 c 0,0 -8.313,6.386 -15.234,19.548 -5.584,10.621 -13.934,28.111 -12.386,34.052 0.186,0.713 3.497,-0.091 5.493,-0.476 4.971,-0.957 5.953,-1.822 10.78,-5.773 0,0 1.354,-1.369 4.931,-2.805 2.141,-0.859 3.445,-1.113 6.043,0.47 0.738,0.45 2.532,2.692 2.788,7.346 0.266,4.838 0.011,5.397 -0.446,9.297 -0.625,5.34 -5.98,14.492 -7.98,15.825 -2,1.333 -7.979,5.183 -10.652,10.845 -3.279,6.947 -2.95,5.51 -3.346,7.032 -3.814,14.639 -0.58,15.908 2.359,25.484 1.807,5.888 3.535,9.87 6.643,13.393 3.109,3.524 5.234,6.612 12.234,8.73 1.956,0.592 13.158,1.419 17.117,-1.301 3.959,-2.721 1.511,-0.739 5.183,-3.703 3.672,-2.964 5.784,-5.719 7.784,-6.407 l 19.998,6.233 19.364,-6.712 c 0,0 6.276,9.146 19.673,12.707 1.712,0.455 7.03,0.366 12.534,-1.476 4.833,-1.619 10.747,-7.512 12.991,-12.641 2.244,-5.129 4.077,-7.229 6.261,-16.812 2.183,-9.583 2.528,-10.782 -0.88,-19.319 -3.408,-8.537 -7.958,-11.677 -10.98,-14.224 -3.021,-2.546 -8.428,-8.568 -9.345,-13.845 -0.88,-5.065 -1.688,-9.407 -1.468,-11.971 0.22,-2.562 1.348,-9.794 5.555,-9.512 5.163,0.348 10.18,5.093 12.443,6.332 2.263,1.241 8.84,5.028 12.1,3.282 1.12,-0.6 -2.403,-13.082 -5.272,-19.236 -2.869,-6.153 -3.941,-10.364 -8.883,-17.899 -5.578,-8.506 -10.161,-13.348 -12.36,-15.419 -1.336,-1.258 7.969,0.954 24.741,22.831 5.714,7.453 14.217,26.937 15.696,35.262 9.365,52.695 -20.302,84.647 -37.496,97.389 -4.84,3.588 -22.639,15.306 -49.797,17.624 -11.635,0.994 -16.176,0.162 -38.022,-5.782 C -12.552,160.01 -33.065,127.62 -38.125,111.428 -45.656,87.322 -44.369,64.063 -38.741,48.972 -33.112,33.88 -26.069,22.638 -18.408,14.779 -11.415,7.606 -7.051,3.288 0,0"
             style="fill:#231f20;fill-opacity:1;fill-rule:nonzero;stroke:none"
             id="path46"
             inkscape:connector-curvature="0" /></g><g
           id="g48"
           transform="translate(118.874,18.2188)"><path
             d="m 0,0 c 0,0 -6.16,-1.34 -7.678,-1.162 -1.517,0.18 -3.215,-1.07 -3.215,-1.07 0,0 -2.32,-2.412 -2.587,-3.037 -0.27,-0.625 -1.52,-0.893 -1.698,-1.786 -0.177,-0.892 -0.267,-1.517 1.25,-1.339 1.518,0.179 2.323,0.179 2.948,0.714 0.625,0.536 4.462,1.43 4.91,1.073 0.445,-0.358 0.892,-0.625 0.892,-0.983 0,-0.357 -1.25,-0.892 -1.427,-1.607 -0.18,-0.715 0.98,-1.518 1.695,-1.34 0.715,0.18 3.392,0.447 3.572,1.34 1.551,1 2.279,0.304 8.035,0.625 2.053,0.357 5,1.25 5.625,1.697 0.625,0.445 0.535,1.518 1.34,0.625 0.803,-0.894 -0.023,-0.982 0.893,-1.25 0.599,-0.176 3.84,1.07 4.465,2.143 0.625,1.07 5.669,4.662 7.587,8.035 2.872,5.051 2.858,6.428 2.143,7.322"
             style="fill:none;stroke:#231f20;stroke-width:1;stroke-linecap:butt;stroke-linejoin:miter;stroke-miterlimit:4;stroke-opacity:1;stroke-dasharray:none"
             id="path50"
             inkscape:connector-curvature="0" /></g><g
           id="g52"
           transform="translate(98.875,204.8252)"><path
             d="m 0,0 c 52.468,0 95,-42.533 95,-95 0,-34.655 -18.556,-64.976 -46.273,-81.569"
             style="fill:none;stroke:#231f20;stroke-width:1;stroke-linecap:butt;stroke-linejoin:miter;stroke-miterlimit:4;stroke-opacity:1;stroke-dasharray:none"
             id="path54"
             inkscape:connector-curvature="0" /></g><g
           id="g56"
           transform="translate(107.2334,15.1875)"><path
             d="M 0,0 C -2.754,-0.24 -5.542,-0.362 -8.358,-0.362"
             style="fill:none;stroke:#231f20;stroke-width:1;stroke-linecap:butt;stroke-linejoin:miter;stroke-miterlimit:4;stroke-opacity:1;stroke-dasharray:none"
             id="path58"
             inkscape:connector-curvature="0" /></g><g
           id="g60"
           transform="translate(139.5303,84.8252)"><path
             d="m 0,0 c 0,-22.453 -18.201,-40.656 -40.655,-40.656 -22.454,0 -40.657,18.203 -40.657,40.656 0,22.454 18.203,40.656 40.657,40.656 C -18.201,40.656 0,22.454 0,0 z"
             style="fill:none;stroke:#231f20;stroke-width:4.03200006;stroke-linecap:butt;stroke-linejoin:miter;stroke-miterlimit:4;stroke-opacity:1;stroke-dasharray:none"
             id="path62"
             inkscape:connector-curvature="0" /></g><g
           id="g64"
           transform="translate(140.3037,158.0396)"><path
             d="m 0,0 c 0,-0.789 -0.641,-1.429 -1.43,-1.429 -0.789,0 -1.427,0.64 -1.427,1.429 0,0.789 0.638,1.429 1.427,1.429 C -0.641,1.429 0,0.789 0,0 z"
             style="fill:none;stroke:#231f20;stroke-width:4.5;stroke-linecap:butt;stroke-linejoin:miter;stroke-miterlimit:4;stroke-opacity:1;stroke-dasharray:none"
             id="path66"
             inkscape:connector-curvature="0" /></g><g
           id="g68"
           transform="translate(99.3809,144.5513)"><path
             d="m 0,0 c 0,0 0.613,-1.443 15.923,10.274 6.348,4.858 3.615,6.764 3.615,6.764 0,0 9.309,10.257 18.213,12.143 9.658,2.045 16.742,-2.121 16.742,-2.121 8.429,-5.416 11.786,-14.286 13.216,-18.215 1.428,-3.928 5.129,-13.551 4.643,-20.357 -0.715,-10 -7.952,-20.189 -13.214,-23.214 -4.334,-2.49 -10.2,-11.555 -10.715,-21.071 -1.748,-24.533 14.999,-10 14.999,-10 7.857,6.428 15,5.356 15,5.356 0,0 -0.041,-10.082 -6.07,-20.714 -5.381,-12.27 -10.194,-23.151 -24.109,-35.178"
             style="fill:none;stroke:#231f20;stroke-width:1;stroke-linecap:round;stroke-linejoin:miter;stroke-miterlimit:4;stroke-opacity:1;stroke-dasharray:none"
             id="path70"
             inkscape:connector-curvature="0" /></g><g
           id="g72"
           transform="translate(118.8721,161.6563)"><path
             d="M 0,0 C 0,0 -10.984,4.293 -19.317,6.187"
             style="fill:none;stroke:#231f20;stroke-width:1;stroke-linecap:round;stroke-linejoin:miter;stroke-miterlimit:4;stroke-opacity:1;stroke-dasharray:none"
             id="path74"
             inkscape:connector-curvature="0" /></g><g
           id="g76"
           transform="translate(137.0967,25.4785)"><path
             d="m 0,0 c 0,0 -4.918,-2.439 -9.293,-3.51 -4.375,-1.072 -5.447,-0.447 -6.965,-1.697 -1.517,-1.25 -3.392,-4.285 -4.553,-5.268"
             style="fill:none;stroke:#231f20;stroke-width:1;stroke-linecap:round;stroke-linejoin:miter;stroke-miterlimit:4;stroke-opacity:1;stroke-dasharray:none"
             id="path78"
             inkscape:connector-curvature="0" /></g><g
           id="g80"
           transform="translate(105.3037,12.6816)"><path
             d="M 0,0 C 0,0 3.75,-0.268 3.035,-1.785"
             style="fill:none;stroke:#231f20;stroke-width:1;stroke-linecap:butt;stroke-linejoin:miter;stroke-miterlimit:4;stroke-opacity:1;stroke-dasharray:none"
             id="path82"
             inkscape:connector-curvature="0" /></g><g
           id="g84"
           transform="translate(113.7861,10.8066)"><path
             d="M 0,0 C 0,0 4.107,0.09 3.482,-1.963"
             style="fill:none;stroke:#231f20;stroke-width:1;stroke-linecap:butt;stroke-linejoin:miter;stroke-miterlimit:4;stroke-opacity:1;stroke-dasharray:none"
             id="path86"
             inkscape:connector-curvature="0" /></g><g
           id="g88"
           transform="translate(132.124,12.1143)"><path
             d="M 0,0 C 0,0 4.25,3.425 5.77,1.461"
             style="fill:none;stroke:#231f20;stroke-width:1;stroke-linecap:butt;stroke-linejoin:miter;stroke-miterlimit:4;stroke-opacity:1;stroke-dasharray:none"
             id="path90"
             inkscape:connector-curvature="0" /></g><g
           id="g92"
           transform="translate(50.8052,28.2188)"><path
             d="m 0,0 c -0.715,-0.895 -0.729,-2.271 2.143,-7.322 1.918,-3.373 6.962,-6.965 7.587,-8.035 0.625,-1.073 3.866,-2.319 4.465,-2.143 0.916,0.268 0.09,0.355 0.893,1.25 0.805,0.893 0.715,-0.18 1.34,-0.625 0.625,-0.447 3.572,-1.34 5.625,-1.697 5.756,-0.321 6.484,0.375 8.035,-0.625 0.18,-0.893 2.857,-1.16 3.572,-1.34 0.715,-0.178 1.875,0.625 1.695,1.34 -0.177,0.715 -1.427,1.25 -1.427,1.607 0,0.358 0.447,0.625 0.892,0.983 0.448,0.357 4.285,-0.538 4.91,-1.073 0.625,-0.535 1.43,-0.535 2.948,-0.715 1.517,-0.177 1.427,0.448 1.25,1.34 -0.178,0.893 -1.428,1.16 -1.698,1.785 -0.267,0.625 -2.587,3.038 -2.587,3.038 0,0 -1.698,1.25 -3.215,1.07 C 34.91,-11.34 28.75,-10 28.75,-10"
             style="fill:none;stroke:#231f20;stroke-width:1;stroke-linecap:butt;stroke-linejoin:miter;stroke-miterlimit:4;stroke-opacity:1;stroke-dasharray:none"
             id="path94"
             inkscape:connector-curvature="0" /></g><g
           id="g96"
           transform="translate(50.8276,28.2559)"><path
             d="m 0,0 c -27.718,16.594 -46.273,46.914 -46.273,81.568 0,52.468 42.532,95 95,95"
             style="fill:none;stroke:#231f20;stroke-width:1;stroke-linecap:butt;stroke-linejoin:miter;stroke-miterlimit:4;stroke-opacity:1;stroke-dasharray:none"
             id="path98"
             inkscape:connector-curvature="0" /></g><g
           id="g100"
           transform="translate(99.5547,14.8242)"><path
             d="M 0,0 C -2.817,0 -5.605,0.123 -8.359,0.363"
             style="fill:none;stroke:#231f20;stroke-width:1;stroke-linecap:butt;stroke-linejoin:miter;stroke-miterlimit:4;stroke-opacity:1;stroke-dasharray:none"
             id="path102"
             inkscape:connector-curvature="0" /></g><g
           id="g104"
           transform="translate(59.5552,159.4678)"><path
             d="m 0,0 c 0.789,0 1.428,-0.64 1.428,-1.429 0,-0.789 -0.639,-1.428 -1.428,-1.428 -0.789,0 -1.43,0.639 -1.43,1.428 C -1.43,-0.64 -0.789,0 0,0 z"
             style="fill:none;stroke:#231f20;stroke-width:4.5;stroke-linecap:butt;stroke-linejoin:miter;stroke-miterlimit:4;stroke-opacity:1;stroke-dasharray:none"
             id="path106"
             inkscape:connector-curvature="0" /></g><g
           id="g108"
           transform="translate(50.8052,28.2188)"><path
             d="m 0,0 c -13.915,12.025 -18.728,22.906 -24.108,35.178 -6.03,10.631 -6.071,20.715 -6.071,20.715 0,0 7.143,1.07 15,-5.358 0,0 16.747,-14.531 14.999,10 -0.515,9.518 -6.381,18.581 -10.715,21.07 -5.262,3.026 -12.499,13.215 -13.213,23.215 -0.487,6.806 3.214,16.429 4.642,20.358 1.43,3.927 4.787,12.798 13.216,18.214 0,0 7.084,4.166 16.742,2.121 8.904,-1.886 18.213,-12.143 18.213,-12.143 0,0 -2.732,-1.905 3.615,-6.765 15.309,-11.716 15.924,-10.273 15.924,-10.273"
             style="fill:none;stroke:#231f20;stroke-width:1;stroke-linecap:round;stroke-linejoin:miter;stroke-miterlimit:4;stroke-opacity:1;stroke-dasharray:none"
             id="path110"
             inkscape:connector-curvature="0" /></g><g
           id="g112"
           transform="translate(98.875,167.8428)"><path
             d="M 0,0 C -8.333,-1.894 -19.318,-6.187 -19.318,-6.187"
             style="fill:none;stroke:#231f20;stroke-width:1;stroke-linecap:round;stroke-linejoin:miter;stroke-miterlimit:4;stroke-opacity:1;stroke-dasharray:none"
             id="path114"
             inkscape:connector-curvature="0" /></g><g
           id="g116"
           transform="translate(82.1431,15.0039)"><path
             d="m 0,0 c -1.16,0.982 -3.035,4.018 -4.553,5.268 -1.517,1.25 -2.59,0.625 -6.965,1.697 -4.375,1.07 -9.293,3.51 -9.293,3.51"
             style="fill:none;stroke:#231f20;stroke-width:1;stroke-linecap:round;stroke-linejoin:miter;stroke-miterlimit:4;stroke-opacity:1;stroke-dasharray:none"
             id="path118"
             inkscape:connector-curvature="0" /></g><g
           id="g120"
           transform="translate(90.0903,10.8965)"><path
             d="M 0,0 C -0.715,1.518 3.035,1.785 3.035,1.785"
             style="fill:none;stroke:#231f20;stroke-width:1;stroke-linecap:butt;stroke-linejoin:miter;stroke-miterlimit:4;stroke-opacity:1;stroke-dasharray:none"
             id="path122"
             inkscape:connector-curvature="0" /></g><g
           id="g124"
           transform="translate(81.1606,8.8438)"><path
             d="M 0,0 C -0.625,2.053 3.482,1.963 3.482,1.963"
             style="fill:none;stroke:#231f20;stroke-width:1;stroke-linecap:butt;stroke-linejoin:miter;stroke-miterlimit:4;stroke-opacity:1;stroke-dasharray:none"
             id="path126"
             inkscape:connector-curvature="0" /></g><g
           id="g128"
           transform="translate(60.5356,13.5742)"><path
             d="M 0,0 C 1.52,1.965 5.77,-1.461 5.77,-1.461"
             style="fill:none;stroke:#231f20;stroke-width:1;stroke-linecap:butt;stroke-linejoin:miter;stroke-miterlimit:4;stroke-opacity:1;stroke-dasharray:none"
             id="path130"
             inkscape:connector-curvature="0" /></g><g
           id="g132"
           transform="translate(89.834,107.0005)"><path
             d="m 0,0 c 0,0 -4.845,4.496 -5.509,-1.155 l 0,-42.188 c 0,0 -0.179,-4.898 5.509,-1.508 5.687,3.391 30.629,19.522 30.629,19.522 0,0 5.157,2.327 0.583,5.716 L 0,0 z"
             style="fill:#231f20;fill-opacity:1;fill-rule:nonzero;stroke:none"
             id="path134"
             inkscape:connector-curvature="0" /></g></g><path
         style="color:#000000;fill:#ffffff;fill-opacity:1;fill-rule:nonzero;stroke:none;stroke-width:3.50000000000000000;marker:none;visibility:visible;display:inline;overflow:visible;enable-background:accumulate"
         d="M 72.1875 46 C 68.159539 46.103376 64.083409 46.899464 60.9375 48.28125 C 57.353957 49.85526 51.947071 54.801563 48.90625 59.28125 C 45.19864 64.743241 40.378859 76.993591 38.15625 86.625 C 37.038505 91.468572 37.04224 98.441038 38.15625 102.34375 C 40.822346 111.68388 46.083408 119.78274 52.53125 124.4375 C 57.419648 127.96649 60.155124 131.35479 63.15625 137.625 C 66.141608 143.86227 67.528857 150.982 67.09375 158.03125 C 66.734136 163.85739 65.497231 167.42902 63.25 169.125 C 59.636431 171.85215 54.734713 170.70262 47.40625 165.4375 C 41.202474 160.9804 37.917139 159.46113 33 158.75 C 29.347875 158.22182 29.620753 158.02351 29.875 161.03125 C 30.376018 166.95828 32.308836 173.31324 35.9375 181 C 37.360331 184.01404 39.250147 188.13652 40.15625 190.15625 C 46.846357 205.06876 53.292803 214.2156 64.5 224.75 C 67.214179 227.30124 67.202961 227.30654 67 228.8125 C 66.821587 230.13633 67.031852 230.77488 68.65625 234.03125 C 70.335497 237.39758 70.861376 238.1048 74.375 241.5625 C 77.485481 244.62348 78.355714 245.29598 78.75 244.96875 C 79.71711 244.16612 81.999038 244.56443 84.46875 245.9375 C 85.772976 246.66261 86.90257 247.36515 86.96875 247.53125 C 87.464948 248.7766 92.607845 249.99021 98.5 250.25 C 103.14486 250.4548 103.53666 250.45071 104.59375 249.75 C 105.21332 249.33931 106.38358 248.87855 107.1875 248.75 C 107.99142 248.62145 109.0241 248.28056 109.5 247.96875 C 110.24481 247.48073 110.67247 247.45295 112.5 247.8125 C 114.4599 248.19808 114.67867 248.17064 115.53125 247.5 C 116.03921 247.10044 116.76231 246.78125 117.125 246.78125 C 118.08874 246.78125 117.92751 246.23299 116.53125 244.6875 C 114.97613 242.96617 114.16967 242.65068 109.96875 242.1875 C 108.10983 241.98255 106.04398 241.71976 105.375 241.59375 L 104.15625 241.375 L 105.375 242.625 C 106.12128 243.41249 106.47633 244.09199 106.34375 244.4375 C 105.89915 245.59609 105.26908 245.11731 102.0625 241.1875 C 100.74983 239.57877 99.365734 238.10199 99 237.90625 C 98.634271 237.71052 96.601175 237.22773 94.46875 236.84375 C 88.179817 235.71133 78.875 232.27255 78.875 231.0625 C 78.875 230.22979 79.854409 230.38382 83.09375 231.75 C 87.013137 233.40299 90.911755 234.67332 93.53125 235.125 C 99.171282 236.09751 99.447535 236.18699 101.21875 237.84375 C 103.13745 239.63847 104.96342 240.18083 110.9375 240.75 C 114.14241 241.05535 116.13698 241.75096 116.9375 242.84375 C 117.29833 243.33633 118.57797 243.40625 126.875 243.40625 L 136.375 243.40625 L 137.53125 242.4375 C 138.85593 241.32285 140.63254 240.7678 142.875 240.75 C 143.75004 240.74304 145.941 240.44737 147.75 240.09375 C 150.55918 239.5446 151.22737 239.26209 152.34375 238.21875 C 154.4799 236.22234 154.68069 236.15607 158.75 235.4375 C 162.8982 234.70499 167.75456 233.2109 171.46875 231.53125 C 174.00546 230.38409 175.0625 230.24745 175.0625 231.0625 C 175.0625 232.30273 165.98468 235.6951 159.59375 236.84375 C 157.40959 237.23631 155.23238 237.80893 154.75 238.125 C 154.26762 238.44106 152.75321 240.13018 151.375 241.875 C 149.76785 243.90965 148.64784 245.0086 148.28125 244.9375 C 147.2977 244.74671 147.38775 244.06105 148.59375 242.6875 L 149.78125 241.34375 L 148.375 241.625 C 147.61529 241.76753 145.36161 242.06742 143.34375 242.3125 C 139.42518 242.78843 138.57049 243.20423 136.96875 245.28125 L 136.09375 246.40625 L 137.09375 246.78125 C 137.65029 246.99285 138.36672 247.39719 138.6875 247.6875 C 139.17732 248.13078 139.63168 248.17688 141.46875 247.84375 C 143.2628 247.51844 143.77562 247.5243 144.40625 247.9375 C 144.82915 248.21459 146.06533 248.61649 147.125 248.84375 C 148.18467 249.07101 149.31441 249.53439 149.65625 249.84375 C 150.15326 250.29351 151.04521 250.39065 154.09375 250.34375 C 160.0628 250.25197 165.17238 249.20262 166.5625 247.8125 C 167.51814 246.85686 171.88007 244.66235 172.9375 244.59375 C 173.42363 244.5622 174.33172 244.63508 174.96875 244.78125 C 176.08611 245.03763 176.27975 244.91439 179.9375 241.21875 C 183.13319 237.98995 183.97153 236.89734 185.3125 234.21875 C 186.58374 231.67943 186.90325 230.65938 186.90625 229.1875 L 186.90625 227.375 L 191.9375 222.375 C 201.05992 213.33512 206.18121 206.09687 211.9375 194.09375 C 218.83977 179.70102 220.35404 176.32066 221.5 172.875 C 222.78424 169.01358 224.00668 163.44807 224.28125 160.21875 L 224.4375 158.34375 L 222.46875 158.5625 C 217.11021 159.14484 212.35198 161.16013 207.15625 165.03125 C 200.12638 170.26891 195.39655 171.63308 191.46875 169.59375 C 187.90345 167.74263 186.1884 160.75862 187.0625 151.65625 C 187.7868 144.11389 189.6521 138.68112 193.65625 132.46875 C 195.76278 129.2005 198.00281 126.87288 201.28125 124.5625 C 205.77121 121.39834 210.0586 116.03662 213.0625 109.78125 C 217.8085 99.898078 217.9554 92.302471 213.625 78.8125 C 209.12961 64.808553 205.25253 57.898563 198.6875 52.09375 C 193.58548 47.582539 187.67419 45.696914 179.8125 46.0625 C 177.47904 46.17101 174.63548 46.527198 173.46875 46.84375 C 168.63246 48.155917 161.436 52.719076 155.65625 58.15625 C 152.99441 60.660347 152.84762 60.89967 153.03125 62.03125 C 153.56331 65.309992 149.77848 68.983589 136.8125 77.875 C 131.29477 81.658778 128.66551 83.0625 127.09375 83.0625 C 125.00216 83.0625 120.03386 80.15994 112.125 74.3125 C 102.7841 67.406267 101.03125 65.540477 101.03125 62.46875 C 101.03125 60.758639 101.00213 60.728666 97.9375 57.84375 C 91.405201 51.694519 84.102601 47.441781 78.34375 46.4375 C 76.927041 46.190442 75.428091 46.036637 73.90625 46 C 73.33556 45.986261 72.762923 45.985232 72.1875 46 z M 127.03125 53.8125 L 122.15625 55.15625 C 117.07795 56.559246 105.23173 60.509037 103.53125 61.375 C 100.44734 62.94547 104.36475 67.07277 117.84375 76.46875 C 119.65697 77.732719 122.32285 79.424054 123.78125 80.21875 C 125.23966 81.013446 126.66987 81.65355 126.9375 81.65625 C 128.42198 81.671421 134.54993 77.796054 142.8125 71.625 C 149.70635 66.476208 151.9473 64.048752 151.46875 62.21875 C 151.24956 61.380562 140.14304 57.40967 130.8125 54.84375 L 127.03125 53.8125 z M 77.1875 60.75 C 78.838243 60.663747 80.560069 61.346324 81.5 62.9375 C 82.669707 64.917658 82.003113 68.14738 80.1875 69.28125 C 78.099194 70.585417 75.158561 70.139997 73.6875 68.3125 C 72.894784 67.327722 72.685673 66.475765 72.84375 64.53125 C 73.031161 62.225847 75.065117 60.860897 77.1875 60.75 z M 177.125 60.75 C 178.27951 60.795489 178.88268 61.132675 179.75 62 C 181.78729 64.037301 181.82283 66.739672 179.8125 68.75 C 176.86666 71.695843 171.87 69.52791 171.875 65.3125 C 171.87742 63.170422 173.78722 60.931936 175.75 60.78125 C 176.28342 60.740298 176.74016 60.734837 177.125 60.75 z M 126.625 103.5625 C 131.2626 103.56093 135.89625 104.09286 140 105.15625 C 157.16928 109.60526 171.37254 122.75204 177.09375 139.46875 C 181.62644 152.71277 180.68077 168.31055 174.625 180.40625 C 166.5893 196.45666 151.52215 207.37294 134.03125 209.8125 C 116.94931 212.19502 100.38596 206.53092 88.40625 194.21875 C 82.45449 188.10181 78.677437 181.96093 75.9375 173.9375 C 72.763973 164.64435 72.334798 153.22945 74.8125 143.53125 C 79.555804 124.96506 94.590057 109.89955 113.15625 105.15625 C 117.32975 104.09014 121.9874 103.56407 126.625 103.5625 z M 127.34375 108.875 C 120.1583 108.75549 113.00928 110.26068 106.3125 113.3125 C 96.473243 117.79639 87.32955 127.02649 82.84375 137 C 77.006333 149.97862 77.093506 164.71552 83.09375 177.3125 C 90.246252 192.32855 103.70246 202.24083 120.0625 204.53125 C 134.90637 206.60939 149.82491 201.58133 160.53125 190.875 C 168.61335 182.7929 173.26154 172.88359 174.40625 161.34375 C 176.15958 143.66827 167.55594 126.07044 152.4375 116.375 C 149.39834 114.426 143.7076 111.84107 140.25 110.84375 C 135.98688 109.61409 131.65502 108.94671 127.34375 108.875 z M 111.03125 127 C 111.78754 126.99935 112.70146 127.36987 113.875 128.09375 C 130.08425 138.0922 154.64658 153.76097 155.53125 154.6875 C 156.94795 156.17125 157.07142 157.90131 155.875 159.25 C 155.43748 159.7432 151.17038 162.63805 146.40625 165.6875 C 129.78989 176.32339 115.55985 185.26699 114.28125 185.90625 C 111.55685 187.26837 109.60561 187.05047 108.6875 185.25 C 108.33597 184.56075 108.2444 178.44357 108.3125 156.71875 C 108.39857 129.26484 108.41918 129.08509 109.15625 128.09375 C 109.69559 127.36846 110.27496 127.00065 111.03125 127 z "
         id="path4379"
         transform="matrix(0.8,0,0,-0.8,0,203.2)" /></g></g></svg>